Coordinates
version=1
nRows=17
nColumns=24
inDegrees=yes

Units are S.I. units (second, meters, Newtons, ...)
Angles are in degrees.

endheader
time	pelvis_tilt	pelvis_list	pelvis_rotation	pelvis_tx	pelvis_ty	pelvis_tz	hip_flexion_r	hip_adduction_r	hip_rotation_r	knee_angle_r	ankle_angle_r	subtalar_angle_r	mtp_angle_r	hip_flexion_l	hip_adduction_l	hip_rotation_l	knee_angle_l	ankle_angle_l	subtalar_angle_l	mtp_angle_l	lumbar_extension	lumbar_bending	lumbar_rotation
      1.81683333	      1.61904794	      6.88921252	     -6.31091316	      1.35915517	      1.01886619	      0.27799372	     14.41975085	     -7.05052106	      2.09060737	    -62.83475246	      6.03575646	    -14.38428397	      1.63166433	      4.73161491	     11.65812411	      0.47201921	     -8.95009301	      0.49323755	    -18.82190518	      7.15777717	     -2.38998063	     -7.86358887	      6.65537538
      1.82100000	      1.61839596	      6.80139965	     -6.08738355	      1.36361100	      1.01941304	      0.27774728	     14.88381911	     -6.91162294	      1.89011041	    -62.37226847	      6.17720499	    -14.36578230	      1.53716858	      4.25692774	     11.61441222	      0.81303590	     -8.63053948	      0.53166267	    -18.89072218	      7.08727527	     -2.46246412	     -7.77051733	      6.32389987
      1.82516667	      1.59758114	      6.70610722	     -5.86102844	      1.36804522	      1.01989496	      0.27750503	     15.36227494	     -6.76645278	      1.68634940	    -61.88329868	      6.30202234	    -14.33188826	      1.47479233	      3.82178414	     11.55144361	      1.10252020	     -8.34952787	      0.63060580	    -18.85977413	      7.03959853	     -2.51024959	     -7.66117200	      6.16956663
      1.82933333	      1.55473303	      6.61905713	     -5.62776030	      1.37248709	      1.02031021	      0.27726785	     15.85703934	     -6.63405749	      1.47324921	    -61.37622597	      6.44750250	    -14.31219857	      1.45196162	      3.42464482	     11.48614370	      1.35115681	     -8.08643122	      0.68342358	    -18.75576811	      7.02391501	     -2.52333532	     -7.55060106	      6.08564693
      1.83350000	      1.54497117	      6.51855796	     -5.38610943	      1.37691504	      1.02077902	      0.27703256	     16.29390335	     -6.49381662	      1.25365190	    -60.81567713	      6.56182583	    -14.25766810	      1.40264895	      2.97867386	     11.41164858	      1.67113839	     -7.80690683	      0.76236499	    -18.76890109	      6.98868654	     -2.58072706	     -7.46714400	      5.82153975
      1.83766667	      1.50964922	      6.44644085	     -5.16220047	      1.38134399	      1.02114428	      0.27679047	     16.77296290	     -6.38998886	      1.04643735	    -60.26575222	      6.66888795	    -14.21750024	      1.33329319	      2.55489454	     11.36499393	      1.99405309	     -7.50477487	      0.81122850	    -18.81256042	      6.93331080	     -2.61017926	     -7.36086972	      5.54914542
      1.84183333	      1.46925927	      6.35853722	     -4.92248309	      1.38576152	      1.02150713	      0.27657627	     17.23409675	     -6.26809368	      0.82990356	    -59.66776331	      6.78155575	    -14.16708190	      1.30109666	      2.15923538	     11.28764101	      2.24615144	     -7.24915583	      0.86459494	    -18.73463669	      6.90870404	     -2.62524849	     -7.27602010	      5.43863733
      1.84600000	      1.45901311	      6.28356246	     -4.69233991	      1.39013301	      1.02184286	      0.27634342	     17.67173190	     -6.17130567	      0.61868270	    -59.06966344	      6.88124380	    -14.10307088	      1.23844653	      1.71998332	     11.23084912	      2.55875855	     -6.95981552	      0.93484882	    -18.76943145	      6.86074664	     -2.68876988	     -7.18203637	      5.14499787
      1.85016667	      1.40831534	      6.21647178	     -4.45363055	      1.39454617	      1.02210251	      0.27612500	     18.13708837	     -6.08179991	      0.40878048	    -58.44587739	      6.98563912	    -14.03762476	      1.17031321	      1.32884171	     11.17363109	      2.87206939	     -6.68383111	      0.97071022	    -18.78615488	      6.80595816	     -2.69411062	     -7.11056043	      4.93014315
      1.85433333	      1.36637646	      6.14373209	     -4.20676524	      1.39893936	      1.02235761	      0.27591943	     18.57675610	     -5.99406832	      0.18310195	    -57.78808542	      7.07833225	    -13.96759070	      1.14410559	      0.94492122	     11.10080648	      3.11729208	     -6.43428432	      1.02447727	    -18.69838466	      6.78497130	     -2.71158060	     -7.03343073	      4.83015282
      1.85850000	      1.32842315	      6.06488914	     -3.95676296	      1.40331364	      1.02259059	      0.27569728	     19.00167133	     -5.90562379	     -0.04418828	    -57.10472564	      7.15366153	    -13.88764291	      1.11477032	      0.56069321	     11.02333483	      3.40765602	     -6.19965177	      1.10134940	    -18.66672440	      6.76106761	     -2.73688351	     -6.94451939	      4.65242017
      1.86266667	      1.31162068	      6.00801406	     -3.73400525	      1.40768319	      1.02280822	      0.27551962	     19.41025746	     -5.83848226	     -0.23946234	    -56.41957028	      7.21797400	    -13.82136824	      1.05422679	      0.12946177	     10.96846636	      3.72189100	     -5.90200537	      1.13362136	    -18.72126386	      6.70717149	     -2.79127748	     -6.87975616	      4.32336600
      1.86683333	      1.25018228	      5.95480822	     -3.50453855	      1.41207187	      1.02292644	      0.27534367	     19.85957211	     -5.77994093	     -0.44457020	    -55.71865919	      7.28813623	    -13.73898134	      1.04016722	     -0.23396939	     10.90551735	      3.95100437	     -5.64363339	      1.19558562	    -18.61531924	      6.69609958	     -2.78345253	     -6.80524524	      4.26799536
      1.87100000	      1.23967278	      5.89086118	     -3.24690553	      1.41642000	      1.02312309	      0.27513957	     20.22467399	     -5.72306951	     -0.67153552	    -54.97176280	      7.32232456	    -13.65358484	      0.99035544	     -0.64993634	     10.83707966	      4.29940790	     -5.39928806	      1.24166748	    -18.69830540	      6.64384517	     -2.84346060	     -6.75097494	      3.92918091
      1.87516667	      1.17403674	      5.84126823	     -3.02559215	      1.42081994	      1.02318253	      0.27500864	     20.65493951	     -5.66984874	     -0.86469412	    -54.22132505	      7.36821368	    -13.55437988	      0.97396958	     -1.00164736	     10.77023596	      4.51309027	     -5.15453638	      1.30341655	    -18.61663760	      6.62722574	     -2.82394145	     -6.69509975	      3.86330560
      1.87933333	      1.17401146	      5.78379791	     -2.79326597	      1.42518890	      1.02332037	      0.27485077	     20.99767325	     -5.62274050	     -1.07309338	    -53.44221953	      7.39779394	    -13.45602568	      0.93623049	     -1.44138070	     10.69901828	      4.82409426	     -4.87353946	      1.35554806	    -18.64957790	      6.58215233	     -2.89663616	     -6.63373803	      3.57589847
      1.88350000	      1.10643682	      5.74429713	     -2.55313512	      1.42957015	      1.02332152	      0.27471109	     21.41008480	     -5.59632625	     -1.28543360	    -52.65738835	      7.42102309	    -13.34966159	      0.92359117	     -1.77946996	     10.63590363	      5.05381651	     -4.65211596	      1.42390362	    -18.56701166	      6.56716001	     -2.87948147	     -6.59154278	      3.50687825
